<?xml version="1.0" encoding="UTF-8" standalone="no"?>
<!DOCTYPE svg PUBLIC "-//W3C//DTD SVG 1.1//EN"
 "http://www.w3.org/Graphics/SVG/1.1/DTD/svg11.dtd">
<!-- Generated by graphviz version 2.47.3 (20210619.1520)
 -->
<!-- Title: dependencies Pages: 1 -->
<svg width="379pt" height="174pt"
 viewBox="0.00 0.00 379.00 173.80" xmlns="http://www.w3.org/2000/svg" xmlns:xlink="http://www.w3.org/1999/xlink">
<g id="graph0" class="graph" transform="scale(1 1) rotate(0) translate(4 169.8)">
<title>dependencies</title>
<polygon fill="white" stroke="transparent" points="-4,4 -4,-169.8 375,-169.8 375,4 -4,4"/>
<text text-anchor="middle" x="185.5" y="-8.2" font-family="sans-serif" font-size="14.00">dependencies</text>
<g id="clust1" class="cluster">
<title>cluster_CoreModule</title>
<polygon fill="none" stroke="black" stroke-dasharray="1,5" points="8,-32.8 8,-157.8 363,-157.8 363,-32.8 8,-32.8"/>
</g>
<g id="clust4" class="cluster">
<title>cluster_CoreModule_exports</title>
<polygon fill="none" stroke="black" points="16,-97.8 16,-149.8 355,-149.8 355,-97.8 16,-97.8"/>
</g>
<!-- IconsModule  -->
<g id="node1" class="node">
<title>IconsModule </title>
<polygon fill="#fb8072" stroke="black" points="346.87,-141.8 253.13,-141.8 253.13,-105.8 346.87,-105.8 346.87,-141.8"/>
<text text-anchor="middle" x="300" y="-119.6" font-family="Times,serif" font-size="14.00">IconsModule </text>
</g>
<!-- TemplateModule  -->
<g id="node2" class="node">
<title>TemplateModule </title>
<polygon fill="#fb8072" stroke="black" points="234.92,-141.8 119.08,-141.8 119.08,-105.8 234.92,-105.8 234.92,-141.8"/>
<text text-anchor="middle" x="177" y="-119.6" font-family="Times,serif" font-size="14.00">TemplateModule </text>
</g>
<!-- UiModule  -->
<g id="node3" class="node">
<title>UiModule </title>
<polygon fill="#fb8072" stroke="black" points="101.55,-141.8 24.45,-141.8 24.45,-105.8 101.55,-105.8 101.55,-141.8"/>
<text text-anchor="middle" x="63" y="-119.6" font-family="Times,serif" font-size="14.00">UiModule </text>
</g>
<!-- CoreModule -->
<g id="node4" class="node">
<title>CoreModule</title>
<polygon fill="#8dd3c7" stroke="black" points="220.26,-76.8 217.26,-80.8 196.26,-80.8 193.26,-76.8 133.74,-76.8 133.74,-40.8 220.26,-40.8 220.26,-76.8"/>
<text text-anchor="middle" x="177" y="-54.6" font-family="Times,serif" font-size="14.00">CoreModule</text>
</g>
<!-- CoreModule&#45;&gt;IconsModule  -->
<g id="edge1" class="edge">
<title>CoreModule&#45;&gt;IconsModule </title>
<path fill="none" stroke="black" stroke-dasharray="5,2" d="M220.37,-58.8C255.78,-58.8 300,-58.8 300,-58.8 300,-58.8 300,-95.69 300,-95.69"/>
<polygon fill="black" stroke="black" points="296.5,-95.69 300,-105.69 303.5,-95.69 296.5,-95.69"/>
</g>
<!-- CoreModule&#45;&gt;TemplateModule  -->
<g id="edge2" class="edge">
<title>CoreModule&#45;&gt;TemplateModule </title>
<path fill="none" stroke="black" stroke-dasharray="5,2" d="M177,-76.91C177,-76.91 177,-95.79 177,-95.79"/>
<polygon fill="black" stroke="black" points="173.5,-95.79 177,-105.79 180.5,-95.79 173.5,-95.79"/>
</g>
<!-- CoreModule&#45;&gt;UiModule  -->
<g id="edge3" class="edge">
<title>CoreModule&#45;&gt;UiModule </title>
<path fill="none" stroke="black" stroke-dasharray="5,2" d="M133.58,-58.8C101.36,-58.8 63,-58.8 63,-58.8 63,-58.8 63,-95.69 63,-95.69"/>
<polygon fill="black" stroke="black" points="59.5,-95.69 63,-105.69 66.5,-95.69 59.5,-95.69"/>
</g>
</g>
</svg>
