<?xml version="1.0" encoding="UTF-8" standalone="no"?>
<!DOCTYPE svg PUBLIC "-//W3C//DTD SVG 1.1//EN"
 "http://www.w3.org/Graphics/SVG/1.1/DTD/svg11.dtd">
<!-- Generated by graphviz version 2.47.3 (20210619.1520)
 -->
<!-- Title: dependencies Pages: 1 -->
<svg width="766pt" height="174pt"
 viewBox="0.00 0.00 766.00 173.80" xmlns="http://www.w3.org/2000/svg" xmlns:xlink="http://www.w3.org/1999/xlink">
<g id="graph0" class="graph" transform="scale(1 1) rotate(0) translate(4 169.8)">
<title>dependencies</title>
<polygon fill="white" stroke="transparent" points="-4,4 -4,-169.8 762,-169.8 762,4 -4,4"/>
<text text-anchor="middle" x="379" y="-8.2" font-family="sans-serif" font-size="14.00">dependencies</text>
<g id="clust1" class="cluster">
<title>cluster_OrdersModule</title>
<polygon fill="none" stroke="black" stroke-dasharray="1,5" points="8,-32.8 8,-157.8 750,-157.8 750,-32.8 8,-32.8"/>
</g>
<g id="clust2" class="cluster">
<title>cluster_OrdersModule_declarations</title>
<polygon fill="none" stroke="black" points="182,-40.8 182,-92.8 742,-92.8 742,-40.8 182,-40.8"/>
</g>
<g id="clust6" class="cluster">
<title>cluster_OrdersModule_imports</title>
<polygon fill="none" stroke="black" points="16,-40.8 16,-92.8 174,-92.8 174,-40.8 16,-40.8"/>
</g>
<!-- PageAddOrdersComponent -->
<g id="node1" class="node">
<title>PageAddOrdersComponent</title>
<polygon fill="#ffffb3" stroke="black" points="734.24,-84.8 563.76,-84.8 563.76,-48.8 734.24,-48.8 734.24,-84.8"/>
<text text-anchor="middle" x="649" y="-62.6" font-family="Times,serif" font-size="14.00">PageAddOrdersComponent</text>
</g>
<!-- OrdersModule -->
<g id="node4" class="node">
<title>OrdersModule</title>
<polygon fill="#8dd3c7" stroke="black" points="415.64,-149.8 412.64,-153.8 391.64,-153.8 388.64,-149.8 318.36,-149.8 318.36,-113.8 415.64,-113.8 415.64,-149.8"/>
<text text-anchor="middle" x="367" y="-127.6" font-family="Times,serif" font-size="14.00">OrdersModule</text>
</g>
<!-- PageAddOrdersComponent&#45;&gt;OrdersModule -->
<g id="edge1" class="edge">
<title>PageAddOrdersComponent&#45;&gt;OrdersModule</title>
<path fill="none" stroke="black" d="M649,-84.91C649,-104.14 649,-131.8 649,-131.8 649,-131.8 425.8,-131.8 425.8,-131.8"/>
<polygon fill="black" stroke="black" points="425.8,-128.3 415.8,-131.8 425.8,-135.3 425.8,-128.3"/>
</g>
<!-- PageEditOrdersComponent -->
<g id="node2" class="node">
<title>PageEditOrdersComponent</title>
<polygon fill="#ffffb3" stroke="black" points="545.97,-84.8 376.03,-84.8 376.03,-48.8 545.97,-48.8 545.97,-84.8"/>
<text text-anchor="middle" x="461" y="-62.6" font-family="Times,serif" font-size="14.00">PageEditOrdersComponent</text>
</g>
<!-- PageEditOrdersComponent&#45;&gt;OrdersModule -->
<g id="edge2" class="edge">
<title>PageEditOrdersComponent&#45;&gt;OrdersModule</title>
<path fill="none" stroke="black" d="M395.92,-84.91C395.92,-84.91 395.92,-103.79 395.92,-103.79"/>
<polygon fill="black" stroke="black" points="392.42,-103.79 395.92,-113.79 399.42,-103.79 392.42,-103.79"/>
</g>
<!-- PageListOrdersComponent -->
<g id="node3" class="node">
<title>PageListOrdersComponent</title>
<polygon fill="#ffffb3" stroke="black" points="358.41,-84.8 189.59,-84.8 189.59,-48.8 358.41,-48.8 358.41,-84.8"/>
<text text-anchor="middle" x="274" y="-62.6" font-family="Times,serif" font-size="14.00">PageListOrdersComponent</text>
</g>
<!-- PageListOrdersComponent&#45;&gt;OrdersModule -->
<g id="edge3" class="edge">
<title>PageListOrdersComponent&#45;&gt;OrdersModule</title>
<path fill="none" stroke="black" d="M338.19,-84.91C338.19,-84.91 338.19,-103.79 338.19,-103.79"/>
<polygon fill="black" stroke="black" points="334.69,-103.79 338.19,-113.79 341.69,-103.79 334.69,-103.79"/>
</g>
<!-- OrdersRoutingModule -->
<g id="node5" class="node">
<title>OrdersRoutingModule</title>
<polygon fill="#8dd3c7" stroke="black" points="166.25,-84.8 163.25,-88.8 142.25,-88.8 139.25,-84.8 23.75,-84.8 23.75,-48.8 166.25,-48.8 166.25,-84.8"/>
<text text-anchor="middle" x="95" y="-62.6" font-family="Times,serif" font-size="14.00">OrdersRoutingModule</text>
</g>
<!-- OrdersRoutingModule&#45;&gt;OrdersModule -->
<g id="edge4" class="edge">
<title>OrdersRoutingModule&#45;&gt;OrdersModule</title>
<path fill="none" stroke="black" d="M95,-84.91C95,-104.14 95,-131.8 95,-131.8 95,-131.8 308.06,-131.8 308.06,-131.8"/>
<polygon fill="black" stroke="black" points="308.06,-135.3 318.06,-131.8 308.06,-128.3 308.06,-135.3"/>
</g>
</g>
</svg>
